<?xml version="1.0" encoding="utf-8"?>
<!-- Generator: Adobe Illustrator 23.0.1, SVG Export Plug-In . SVG Version: 6.00 Build 0)  -->
<svg version="1.1" id="Calque_1" xmlns="http://www.w3.org/2000/svg" xmlns:xlink="http://www.w3.org/1999/xlink" x="0px" y="0px"
	 viewBox="0 0 17 17" style="enable-background:new 0 0 17 17;" xml:space="preserve">
<style type="text/css">
	.st0{fill:#FFFFFF;}
	.st1{fill:#D9EBE7;}
	.st2{fill:#E69F55;}
	.st3{fill:#F7E489;}
	.st4{fill:none;}
	.st5{opacity:0.77;fill:#E48A4F;}
	.st6{opacity:0.68;fill:#E9B056;}
	.st7{fill:#000005;}
	.st8{fill:#BC7194;}
	.st9{opacity:0.4;fill:#BC7194;}
</style>
<path class="st0" d="M16.5,10.1v1.4c0,0.9-1.1,1.6-2.4,1.6H2.9c-1.4,0-2.4-0.7-2.4-1.6v-1.4c0-0.1,0-0.2,0.1-0.4
	C0.8,9,1.7,8.5,2.9,8.5h11.2c1.1,0,2,0.5,2.3,1.1C16.5,9.7,16.5,9.9,16.5,10.1z"/>
<path class="st1" d="M16.5,10.1v1.4c0,0.9-1.1,1.6-2.4,1.6H2.9c-1.4,0-2.4-0.7-2.4-1.6v-1.4c0-0.1,0-0.2,0.1-0.4l1.7,0
	c0,0-1.2,0.9-1.6,1.4c-0.3,0.5,0.7,1.1,1.3,1.2c0.6,0.1,1.6,0.1,2.2,0.1s1.3,0.2,1.8,0c0.5-0.1,0.7,0,1.3,0c0.6,0,1.9,0.1,2.3,0.1
	c0.4,0,0.7,0.1,1,0c0.3-0.1,1.4,0.1,1.9,0c0.5-0.1,1.3,0,1.7,0c0.5,0,1.3-0.4,1.6-0.6c0.3-0.2,0.1-0.6,0-0.7c-0.1-0.1,0-0.4,0.2-0.6
	c0.2-0.2,0.3-1,0.3-1C16.5,9.8,16.5,9.9,16.5,10.1z"/>
<path class="st2" d="M16,9.9c-0.4,0-0.7,0-1.1,0c-0.1,0-0.2,0-0.2,0c0,0-0.1,0-0.1,0c-0.3-0.1-0.7-0.2-1.2-0.3h0
	c-0.7-0.2-1.7-0.3-3.1-0.4c-0.3,0-0.6,0-0.9,0c-0.1,0-0.3,0-0.4,0c-0.7,0-1.5,0.1-2.1,0.1C6.6,9.3,6.3,9.4,6,9.4h0
	C5.2,9.5,4.5,9.6,3.9,9.7h0L3.1,9.9c-0.7,0.1-1.2,0.2-1.6,0.2l-0.5,0C0.2,10,0,9.8,0,9c0-0.1,0-0.1,0-0.2c0-0.6,0.6-1.5,1.3-2.2l0,0
	C1.9,5.9,2.5,5.4,3,5c0.4-0.3,0.8-0.5,1.4-0.7c0.5-0.2,1.2-0.3,2-0.4c0.4,0,1-0.1,1.5-0.1h0c0.1,0,0.3,0,0.5,0c0.5,0,1,0,1.5,0.1
	c0,0,0,0,0,0l0,0C10.2,4,10.6,4.1,11,4.2c0.7,0.2,1.3,0.5,1.9,0.8c0,0,0,0,0,0c0.4,0.2,0.9,0.5,1.2,0.8c0,0,0,0,0,0
	c0,0,0.1,0,0.1,0.1c0,0,0,0,0,0h0l0,0c0.2,0.1,0.4,0.3,0.5,0.4c0.1,0.1,0.3,0.2,0.4,0.3c0.3,0.2,0.5,0.5,0.7,0.8
	c0.1,0.2,0.3,0.3,0.4,0.5c0.5,0.7,0.7,1.2,0.7,1.2C17.2,9.6,16.7,9.8,16,9.9z"/>
<path class="st3" d="M6.3,3.9c0.4,0,1-0.1,1.5-0.1h0L6.3,3.9z"/>
<path class="st3" d="M10.8,9.9L10.8,9.9C10.8,9.9,10.8,9.9,10.8,9.9z"/>
<polyline class="st4" points="14.2,5.8 14.2,5.8 14.2,5.8 14.2,5.8 "/>
<path class="st5" d="M16,9.9c-0.4,0-0.8,0-1.3,0c0,0-0.1,0-0.1,0c-0.3-0.1-0.7-0.2-1.2-0.3h0c-0.7-0.2-1.7-0.3-3.1-0.4
	c-0.3,0-0.6,0-0.9,0c-0.1,0-0.3,0-0.4,0c-0.7,0-1.5,0.1-2.1,0.1C6.6,9.3,6.3,9.4,6,9.4h0C5.2,9.5,4.5,9.6,3.9,9.7h0L3.1,9.9
	c-0.7,0.1-1.2,0.2-1.6,0.2l-0.5,0C0.2,10,0,9.8,0,9c0.1,0.1,0.2,0.2,0.3,0.2c0,0,0.1,0,0.2,0c0.1,0,0.2-0.1,0.4-0.1
	C1.5,8.9,2.6,8.5,4,8.2C6.1,7.7,9.4,7.7,11,8C12.6,8.2,15.5,9,16.1,9c0.6,0,0-1.3,0-1.3s0,0,0.1,0c0.5,0.7,0.7,1.2,0.7,1.2
	C17.2,9.6,16.7,9.8,16,9.9z"/>
<path class="st3" d="M4.4,4.3C4,4.5,3.3,4.9,2.6,5.4C1.4,6.2,1,7.7,0.9,8.8c0,0.1,0,0.2,0,0.3c0,0.7,0.5,0.9,0.7,1l-0.5,0
	C0.9,10,0.6,9.8,0.5,9.2c0,0,0,0,0-0.1C0.3,8.6,0.6,8,1.3,6.6c0,0,0,0,0,0l0,0C1.9,5.9,2.5,5.4,3,5C3.4,4.7,3.8,4.5,4.4,4.3z"/>
<path class="st3" d="M3.9,9.7L3.9,9.7C3.7,9.7,2.5,8.9,2.7,7.9C2.8,6.8,3.5,5.4,4.6,5c1-0.5,3.1-1,3.3-1.1c-0.6,0-1.1,0-1.5,0.1
	c-0.8,0.3-2.4,1-2.9,1.4C2.8,6,2.2,6.7,2.2,8c0,1.1,0.6,1.7,0.9,1.8L3.9,9.7z"/>
<path class="st3" d="M14.9,9.9c0,0,0-0.1-0.1-0.1c-0.5-0.2-0.4-0.4-0.5-0.7c-0.1-0.3,0-1.2,0.4-1.7c0.2-0.3,0.8-0.2,1.2-0.1
	c0,0-0.4-0.5-0.7-0.8c-0.1-0.1-0.4,0-0.6,0c-1.1,0.1-1.2,0.9-1.4,1.9c-0.1,0.6,0.1,1,0.2,1.2c0,0,0,0,0,0
	C14.7,9.9,14.9,9.9,14.9,9.9z"/>
<path class="st6" d="M9.7,6.2c0,0-4.1,0.6-5.2,0.8S3.3,7.2,3.7,6.6c0.3-0.5,0.2-1.2,4.7-0.9C8.4,5.7,11.5,5.8,9.7,6.2z"/>
<path class="st3" d="M11,4.2C11,4.2,10.9,4.3,11,4.2c-0.1,0.1-1,0.1-1.4,0.1c-0.4,0-2.7,0.5-3.5,1.3C5.3,6.5,5.9,8.2,6.3,8.8
	C6.5,9,6.7,9.2,6.9,9.3C6.6,9.3,6.3,9.4,6,9.4h0C5.7,9.2,5.2,8.6,5,7.9C4.8,6.8,4.8,5.8,5.7,5.3C6.5,4.8,8.6,4.1,9.8,4c0,0,0,0,0,0
	l0,0C9.8,4,10.4,4,11,4.2z"/>
<path class="st3" d="M12.9,5c0.2,0.1,1,0.6,1,0.6c-0.5-0.2-1.2-0.5-2.1-0.3c-1.5,0.3-2,0.7-2,1.6c0,0.9,0.1,1.6,0.6,2.3c0,0,0,0,0,0
	c-0.3,0-0.6,0-0.9,0c-0.3-0.4-0.7-1-0.7-1.6c0-1,0.1-2.1,1.1-2.4C10.7,4.8,12.1,4.8,12.9,5C12.8,5,12.8,5,12.9,5z"/>
<g>
	<circle class="st7" cx="6.7" cy="10.5" r="0.4"/>
	<circle class="st7" cx="9.5" cy="10.5" r="0.4"/>
</g>
<ellipse transform="matrix(0.9171 -0.3986 0.3986 0.9171 -3.3546 3.4396)" class="st0" cx="6.6" cy="9.8" rx="0.2" ry="0.2"/>
<ellipse transform="matrix(0.9171 -0.3986 0.3986 0.9171 -3.1174 4.5802)" class="st0" cx="9.5" cy="9.8" rx="0.2" ry="0.2"/>
<path class="st8" d="M10,11.8c0,0,0.4-0.8-0.3-0.7c-0.7,0.1-1.2,0.2-2,0.1s-1.1-0.1-1.1,0.3c0,0.4,0.5,0.5,1.4,0.6
	C8.9,12.3,9.8,12.3,10,11.8z"/>
<path class="st9" d="M10,11.7c0,0,0,0.3,0,0.4c0.1,0.1,0,0.3-0.1,0.3c-0.1,0-0.3-0.1-0.2-0.3c0.1-0.2,0-0.2,0-0.2"/>
<path class="st0" d="M6.6,10.2c0,0,0,0.2,0.2,0.2c0,0-0.2,0-0.2,0.2c0,0,0-0.2-0.2-0.2C6.4,10.4,6.6,10.4,6.6,10.2z"/>
<path class="st0" d="M9.5,10.2c0,0,0,0.2,0.2,0.2c0,0-0.2,0-0.2,0.2c0,0,0-0.2-0.2-0.2C9.3,10.4,9.5,10.4,9.5,10.2z"/>
</svg>
