<svg xmlns="http://www.w3.org/2000/svg" width="17" height="11" viewBox="0 0 17 11">
    <g fill="none" fill-rule="evenodd">
        <path fill="#FFF" d="M16.5 7.1v1.4c0 .9-1.1 1.6-2.4 1.6H2.9C1.5 10.1.5 9.4.5 8.5V7.1c0-.1 0-.2.1-.4.2-.7 1.1-1.2 2.3-1.2h11.2c1.1 0 2 .5 2.3 1.1.1.1.1.3.1.5z"/>
        <path fill="#D9EBE7" d="M16.5 7.1v1.4c0 .9-1.1 1.6-2.4 1.6H2.9C1.5 10.1.5 9.4.5 8.5V7.1c0-.1 0-.2.1-.4h1.7S1.1 7.6.7 8.1c-.3.5.7 1.1 1.3 1.2.6.1 1.6.1 2.2.1.6 0 1.3.2 1.8 0 .5-.1.7 0 1.3 0 .6 0 1.9.1 2.3.1.4 0 .7.1 1 0 .3-.1 1.4.1 1.9 0s1.3 0 1.7 0c.5 0 1.3-.4 1.6-.6.3-.2.1-.6 0-.7-.1-.1 0-.4.2-.6.2-.2.3-1 .3-1 .2.2.2.3.2.5z"/>
        <path fill="#E69F55" d="M16 6.9h-1.3-.1c-.3-.1-.7-.2-1.2-.3-.7-.2-1.7-.3-3.1-.4H9c-.7 0-1.5.1-2.1.1-.3 0-.6.1-.9.1-.8.1-1.5.2-2.1.3l-.8.2c-.7.1-1.2.2-1.6.2H1C.2 7 0 6.8 0 6v-.2c0-.6.6-1.5 1.3-2.2C1.9 2.9 2.5 2.4 3 2c.4-.3.8-.5 1.4-.7.5-.2 1.2-.3 2-.4.4 0 1-.1 1.5-.1h.5c.5 0 1 0 1.5.1.3.1.7.2 1.1.3.7.2 1.3.5 1.9.8.4.2.9.5 1.2.8 0 0 .1 0 .1.1.2.1.4.3.5.4.1.1.3.2.4.3.3.2.5.5.7.8.1.2.3.3.4.5.5.7.7 1.2.7 1.2.3.5-.2.7-.9.8z"/>
        <path fill="#F7E489" d="M6.3.9c.4 0 1-.1 1.5-.1L6.3.9z"/>
        <path fill="#E48A4F" d="M16 6.9h-1.3-.1c-.3-.1-.7-.2-1.2-.3-.7-.2-1.7-.3-3.1-.4H9c-.7 0-1.5.1-2.1.1-.3 0-.6.1-.9.1-.8.1-1.5.2-2.1.3l-.8.2c-.7.1-1.2.2-1.6.2H1C.2 7 0 6.8 0 6c.1.1.2.2.3.2h.2c.1 0 .2-.1.4-.1.6-.2 1.7-.6 3.1-.9 2.1-.5 5.4-.5 7-.2 1.6.2 4.5 1 5.1 1 .6 0-.362-1.3-.362-1.3h.303c.5.7.758 1.2.758 1.2.477.73-.099.9-.799 1z" opacity=".77"/>
        <path fill="#F7E489" d="M4.4 1.3c-.4.2-1.1.6-1.8 1.1C1.4 3.2 1 4.7.9 5.8v.3c0 .7.5.9.7 1h-.5C.9 7 .6 6.8.5 6.2v-.1c-.2-.5.1-1.1.8-2.5C1.9 2.9 2.5 2.4 3 2c.4-.3.8-.5 1.4-.7z"/>
        <path fill="#F7E489" d="M3.9 6.7c-.2 0-1.4-.8-1.2-1.8.1-1.1.8-2.5 1.9-2.9C5.6 1.5 7.705.902 7.905.802c-.607.053-.73-.02-1.5.098C5.634 1.019 4 2 3.5 2.4 2.8 3 2.2 3.7 2.2 5c0 1.1.601 1.799.901 1.899L3.9 6.7zM14.9 6.9s0-.1-.1-.1c-.5-.2-.4-.4-.5-.7-.1-.3 0-1.2.4-1.7.2-.3.622-.221 1.022-.121 0 0-.227-.43-.733-.759-.112-.073-.189-.02-.389-.02-1.1.1-1.2.9-1.4 1.9-.1.6.1 1 .2 1.2 1.3.3 1.5.3 1.5.3z"/>
        <path fill="#E9B056" d="M9.7 3.2s-4.1.6-5.2.8c-1.1.2-1.2.2-.8-.4.3-.5.2-1.2 4.7-.9 0 0 3.1.1 1.3.5z" opacity=".68"/>
        <path fill="#F7E489" d="M11 1.2s-.1.1 0 0c-.1.1-1 .1-1.4.1-.4 0-2.7.5-3.5 1.3-.8.9-.2 2.6.2 3.2.2.2.4.4.6.5-.3 0-.6.1-.9.1-.3-.2-.8-.8-1-1.5-.2-1.1-.2-2.1.7-2.6.8-.5 2.9-1.2 4.1-1.3 0 0 .6 0 1.2.2z"/>
        <path fill="#F7E489" d="M12.9 2c.2.1 1 .6 1 .6-.5-.2-1.2-.5-2.1-.3-1.5.3-2 .7-2 1.6 0 .9.1 1.6.6 2.3h-.9c-.3-.4-.7-1-.7-1.6 0-1 .1-2.1 1.1-2.4.8-.4 2.2-.4 3-.2-.1 0-.1 0 0 0z"/>
        <g fill="#000005" transform="translate(6 7)">
            <circle cx=".7" cy=".5" r="1"/>
            <circle cx="3.5" cy=".5" r="1"/>
        </g>
        <circle cx="6.605" cy="6.796" r="1" fill="#FFF" transform="rotate(-23.491 6.605 6.796)"/>
        <circle cx="9.501" cy="6.781" r="1" fill="#FFF" transform="rotate(-23.491 9.501 6.781)"/>
        <path fill="#BC7194" d="M10 8.8s.4-.8-.3-.7c-.7.1-1.2.2-2 .1s-1.1-.1-1.1.3.5.5 1.4.6c.9.2 1.8.2 2-.3z"/>
        <path fill="#BC7194" d="M10 8.7v.4c.1.1 0 .3-.1.3s-.3-.1-.2-.3c.1-.2 0-.2 0-.2" opacity=".4"/>
        <path fill="#FFF" d="M6.6 7.2s0 .2.2.2c0 0-.2 0-.2.2 0 0 0-.2-.2-.2 0 0 .2 0 .2-.2zM9.5 7.2s0 .2.2.2c0 0-.2 0-.2.2 0 0 0-.2-.2-.2 0 0 .2 0 .2-.2z"/>
    </g>
</svg>
