<svg xmlns="http://www.w3.org/2000/svg" width="17" height="11" viewBox="0 0 17 11">
    <g fill="none" fill-rule="evenodd">
        <g transform="translate(0 5)">
            <path fill="#FFF" d="M16.5 1.8v1.5c0 1-1.1 1.8-2.4 1.8H2.9C1.5 5.1.5 4.3.5 3.3V1.8c0-.1 0-.3.1-.4C.8.6 1.7 0 2.9 0h11.2c1.1 0 2 .5 2.3 1.2.1.2.1.4.1.6z"/>
            <path fill="#D9EBE7" d="M16.5 2.1v1.4c0 .9-1.1 1.6-2.4 1.6H2.9C1.5 5.1.5 4.4.5 3.5V2.1c0-.1 0-.2.1-.4l.2-.5s-.1.4-.1.7c0 .3.2.5 0 1.1-.2.6.7 1.1 1.3 1.2.6.1 1.6.1 2.2.1.6 0 1.3.2 1.8 0 .5-.1.7 0 1.3 0 .6 0 1.9.1 2.3.1.4 0 .7.1 1 0 .3-.1 1.4.1 1.9 0s1.3 0 1.7 0c.5 0 1.3-.4 1.6-.6.3-.2.1-.6 0-.7-.1-.1 0-.4.2-.6.2-.2.3-1 .3-1 .2.3.2.4.2.6z"/>
            <path fill="#D9EBE7" d="M16.5 2.9V1.6c0-.9-1.1-1.6-2.4-1.6H2.9C1.5 0 .4.7.4 1.6V3c0 .1 0 .2.1.4l.2.4S.8 2.5.6 2C.5 1.4 1.4.8 2 .7 2.6.6 3.6.6 4.2.6 4.8.6 5.5.4 6 .6c.5.1.7 0 1.3 0C7.9.6 9.2.5 9.6.5c.4 0 .7-.1 1 0 .3.1 1.4-.1 1.9 0s1.3 0 1.7 0c.5 0 1.3.4 1.6.6.3.2.4.5.3.6-.1.1 0 .5 0 .7 0 .3.3 1 .3 1 .1-.1.1-.3.1-.5z"/>
            <circle cx="6.605" cy="1.796" r="1" fill="#FFF" transform="rotate(-23.491 6.605 1.796)"/>
            <circle cx="9.501" cy="1.781" r="1" fill="#FFF" transform="rotate(-23.491 9.501 1.781)"/>
            <path fill="#BC7194" d="M10.554 3.588s-.091-.347-.591-.247c-.9.1-1.058-.222-1.797-.096C7.426 3.372 7 3.188 7 3.588s.613-.3 1.513-.2c.9.1 1.841.7 2.041.2z"/>
        </g>
        <path stroke="#000" stroke-linecap="round" stroke-width=".2" d="M9.595 6.395l.81.81M10.405 6.395l-.783.783M5.595 6.395l.81.81M6.405 6.395l-.783.783"/>
    </g>
</svg>
