<?xml version="1.0" encoding="utf-8"?>
<!-- Generator: Adobe Illustrator 23.0.1, SVG Export Plug-In . SVG Version: 6.00 Build 0)  -->
<svg version="1.1" id="Calque_1" xmlns="http://www.w3.org/2000/svg" xmlns:xlink="http://www.w3.org/1999/xlink" x="0px" y="0px"
	 viewBox="0 0 17 17" style="enable-background:new 0 0 17 17;" xml:space="preserve">
<style type="text/css">
	.st0{fill:#FFFFFF;}
	.st1{fill:#D9EBE7;}
	.st2{fill:#F7E489;}
	.st3{fill:none;}
	.st4{fill:#BC7194;}
</style>
<path class="st0" d="M16.5,9.8v1.5c0,1-1.1,1.8-2.4,1.8H2.9c-1.4,0-2.4-0.8-2.4-1.8V9.8c0-0.1,0-0.3,0.1-0.4C0.8,8.6,1.7,8,2.9,8
	h11.2c1.1,0,2,0.5,2.3,1.2C16.5,9.4,16.5,9.6,16.5,9.8z"/>
<path class="st1" d="M16.5,10.1v1.4c0,0.9-1.1,1.6-2.4,1.6H2.9c-1.4,0-2.4-0.7-2.4-1.6v-1.4c0-0.1,0-0.2,0.1-0.4l0.2-0.5
	c0,0-0.1,0.4-0.1,0.7c0,0.3,0.2,0.5,0,1.1c-0.2,0.6,0.7,1.1,1.3,1.2c0.6,0.1,1.6,0.1,2.2,0.1s1.3,0.2,1.8,0c0.5-0.1,0.7,0,1.3,0
	c0.6,0,1.9,0.1,2.3,0.1c0.4,0,0.7,0.1,1,0c0.3-0.1,1.4,0.1,1.9,0c0.5-0.1,1.3,0,1.7,0c0.5,0,1.3-0.4,1.6-0.6c0.3-0.2,0.1-0.6,0-0.7
	c-0.1-0.1,0-0.4,0.2-0.6c0.2-0.2,0.3-1,0.3-1C16.5,9.8,16.5,9.9,16.5,10.1z"/>
<path class="st1" d="M16.5,10.9V9.6c0-0.9-1.1-1.6-2.4-1.6H2.9C1.5,8,0.4,8.7,0.4,9.6v1.4c0,0.1,0,0.2,0.1,0.4l0.2,0.4
	c0,0,0.1-1.3-0.1-1.8C0.5,9.4,1.4,8.8,2,8.7c0.6-0.1,1.6-0.1,2.2-0.1s1.3-0.2,1.8,0c0.5,0.1,0.7,0,1.3,0c0.6,0,1.9-0.1,2.3-0.1
	c0.4,0,0.7-0.1,1,0c0.3,0.1,1.4-0.1,1.9,0c0.5,0.1,1.3,0,1.7,0c0.5,0,1.3,0.4,1.6,0.6c0.3,0.2,0.4,0.5,0.3,0.6c-0.1,0.1,0,0.5,0,0.7
	c0,0.3,0.3,1,0.3,1C16.5,11.3,16.5,11.1,16.5,10.9z"/>
<path class="st2" d="M10.8,9.9L10.8,9.9C10.8,9.9,10.8,9.9,10.8,9.9z"/>
<polyline class="st3" points="14.2,5.8 14.2,5.8 14.2,5.8 14.2,5.8 "/>
<ellipse transform="matrix(0.9171 -0.3986 0.3986 0.9171 -3.3546 3.4396)" class="st0" cx="6.6" cy="9.8" rx="0.2" ry="0.2"/>
<ellipse transform="matrix(0.9171 -0.3986 0.3986 0.9171 -3.1174 4.5802)" class="st0" cx="9.5" cy="9.8" rx="0.2" ry="0.2"/>
<path class="st4" d="M10,11.5c0,0,0-0.2-0.5-0.1c-0.9,0.1-1.1-0.2-1.8-0.3s-1.1,0-1.1,0.4c0,0.4,0.5,0.2,1.4,0.3S9.8,12,10,11.5z"/>
<path d="M6.8,10.5l0.3,0.3c0,0,0,0.1,0,0.1c0,0-0.1,0-0.1,0L6.8,10.5l-0.4,0.4c0,0-0.1,0-0.1,0c0,0,0-0.1,0-0.1l0.3-0.3l-0.3-0.3
	c0,0,0-0.1,0-0.1c0,0,0,0,0,0c0,0,0,0,0,0L6.8,10.5L7,10.1c0,0,0,0,0,0s0,0,0,0c0,0,0,0.1,0,0.1L6.8,10.5z"/>
<path d="M9.6,10.5l0.3,0.3c0,0,0,0.1,0,0.1c0,0-0.1,0-0.1,0L9.6,10.5l-0.4,0.4c0,0-0.1,0-0.1,0c0,0,0-0.1,0-0.1l0.3-0.3l-0.3-0.3
	c0,0,0-0.1,0-0.1c0,0,0,0,0,0c0,0,0,0,0,0L9.6,10.5l0.2-0.4c0,0,0,0,0,0c0,0,0,0,0,0c0,0,0,0.1,0,0.1L9.6,10.5z"/>
</svg>
