<?xml version="1.0" encoding="utf-8"?>
<!-- Generator: Adobe Illustrator 23.0.1, SVG Export Plug-In . SVG Version: 6.00 Build 0)  -->
<svg version="1.1" id="Calque_1" xmlns="http://www.w3.org/2000/svg" xmlns:xlink="http://www.w3.org/1999/xlink" x="0px" y="0px"
	 viewBox="0 0 64 80" style="enable-background:new 0 0 64 80;" xml:space="preserve">
<title>01 love heart romance wedding valentine</title>
<path d="M43.4,6c-4.2,0-8.3,1.5-11.4,4.3C25.2,4.2,14.8,4.5,8.4,11c-6.8,6.7-4.9,18.6,0.3,26.4s17.8,17.3,21.5,20
	c1.1,0.8,2.6,0.8,3.7,0c3.8-2.8,16.4-12.3,21.5-20s7-19.6,0.3-26.4C52.4,7.8,48,6,43.4,6z M53.7,36.3c-4.9,7.4-17.3,16.8-21,19.5
	c-0.4,0.3-0.9,0.3-1.3,0c-3.7-2.7-16.1-12.1-21-19.5c-4.7-7.1-6.5-17.9-0.5-23.9c5.9-5.9,15.6-5.9,21.5,0c0.4,0.4,1,0.4,1.4,0
	c5.9-5.9,15.6-5.9,21.5,0C60.2,18.4,58.4,29.2,53.7,36.3z"/>
</svg>
