<?xml version="1.0" encoding="utf-8"?>
<!-- Generator: Adobe Illustrator 23.0.1, SVG Export Plug-In . SVG Version: 6.00 Build 0)  -->
<svg version="1.1" id="Calque_1" xmlns="http://www.w3.org/2000/svg" xmlns:xlink="http://www.w3.org/1999/xlink" x="0px" y="0px"
	 viewBox="0 0 169.6 101.2" style="enable-background:new 0 0 169.6 101.2;" xml:space="preserve">
<style type="text/css">
	.st0{opacity:0.2;}
	.st1{fill:#FFFFFF;}
	.st2{fill:#D9EBE7;}
	.st3{fill:#E69F55;}
	.st4{fill:#F7E489;}
	.st5{fill:none;}
	.st6{opacity:0.77;fill:#E48A4F;}
	.st7{opacity:0.68;fill:#E9B056;}
	.st8{fill:#000005;}
	.st9{fill:#BC7194;}
	.st10{opacity:0.4;fill:#BC7194;}
</style>
<ellipse class="st0" cx="84.7" cy="88.2" rx="80.3" ry="13"/>
<path class="st1" d="M165,62.7v13.6c0,9-10.9,16.3-24.4,16.3H28.8c-13.5,0-24.4-7.3-24.4-16.3V62.7c0-1.2,0.2-2.4,0.6-3.6
	c2.5-7.2,12.2-12.7,23.8-12.7h111.7c10.7,0,19.8,4.6,23.1,11C164.5,59,165,60.8,165,62.7z"/>
<path class="st2" d="M165,62.9v13.6c0,9-10.9,16.3-24.4,16.3H28.8c-13.5,0-24.4-7.3-24.4-16.3V62.9c0-1.2,0.2-2.4,0.6-3.6l17.3-0.5
	c0,0-12.3,8.6-15.6,13.8C3.5,77.8,13.5,84,19.9,85.1c6.5,1.1,16.1,1.3,22.3,1.3s12.9,1.5,18,0.4c5.2-1.1,6.8-0.4,12.6-0.4
	c5.8,0,19.3,1.1,22.9,0.8c3.5-0.3,6.8,1.4,9.7-0.1c2.9-1.5,13.9,0.6,18.7,0c4.8-0.6,12.9-0.5,17.4,0s13.2-4.1,16.1-6
	c2.9-1.9,1.4-5.6,0.4-6.9c-1-1.3,0-3.9,2.3-6.2c2.3-2.4,3.5-10.3,3.5-10.3C164.5,59.3,165,61,165,62.9z"/>
<path class="st3" d="M159.6,60.6c-3.5,0.4-7.4,0.3-10.6,0c-0.8-0.1-1.5-0.2-2.2-0.2c-0.4-0.1-0.8-0.1-1.2-0.2
	c-3.2-0.5-6.9-1.6-12.2-2.8h0c-7-1.5-16.7-3.2-31-3.7c-2.7-0.1-5.5-0.1-8.5-0.1c-1.3,0-2.6,0-4,0c-7.4,0.1-14.5,0.6-21.2,1.2
	c-2.9,0.3-5.7,0.6-8.4,0.9h0c-8,1-15.3,2.2-21.7,3.3h0l-7.2,1.2c-6.6,1.1-12,1.9-15.9,2.1l-5.2,0C2.4,62-0.2,59.7,0,51.5
	c0-0.6,0-1.3,0.1-2C0.5,43,6.5,34.6,13.4,27.1l0,0c5.5-6,11.7-11.5,16.2-15.1c3.9-3.1,8.3-5.5,13.7-7.2C48.7,3,55,1.9,63,1.2
	c4.5-0.4,9.5-0.6,15.2-0.8h0c1.5,0,3-0.1,4.5-0.1c5.4,0,10.5,0.3,15.2,1c0,0,0,0,0,0l0,0c4.1,0.6,7.9,1.5,11.6,2.5
	c6.8,1.9,12.9,4.5,18.5,7.5c0,0,0,0,0,0c4.5,2.4,8.5,5,12.3,7.6c0.1,0,0.2,0.1,0.2,0.2c0.3,0.2,0.5,0.4,0.7,0.5
	c0.1,0,0.1,0.1,0.2,0.1h0l0,0c1.8,1.3,3.6,2.7,5.3,4c1.3,1,2.5,2.1,3.7,3.2c2.8,2.5,5.2,5,7.3,7.5c1.4,1.7,2.7,3.3,3.8,4.8
	c4.8,6.5,7.3,11.6,7.3,11.6C171.5,57.3,166.2,59.8,159.6,60.6z"/>
<path class="st4" d="M63,1.2c4.5-0.4,9.5-0.6,15.2-0.8h0L63,1.2z"/>
<path class="st4" d="M107.8,60.8l0.5,0.2C108.3,61,108.1,61,107.8,60.8z"/>
<path class="st4" d="M141.6,19.9l-3.7-2.3c1,0.5,1.8,1,2.5,1.4c0.1,0,0.2,0.1,0.2,0.2c0.3,0.2,0.5,0.4,0.7,0.5
	C141.5,19.8,141.6,19.9,141.6,19.9z"/>
<polyline class="st5" points="141.7,20 141.7,20 141.6,19.8 141.5,19.8 "/>
<path class="st6" d="M159.6,60.6c-3.5,0.2-7.8,0-12.9-0.2c-0.4-0.1-0.8-0.1-1.2-0.2c-3.2-0.5-6.9-1.6-12.2-2.8h0
	c-7-1.5-16.7-3.2-31-3.7c-2.7-0.1-5.5-0.1-8.5-0.1c-1.3,0-2.6,0-4,0c-7.4,0.1-14.5,0.6-21.2,1.2c-2.9,0.3-5.7,0.6-8.4,0.9h0
	c-8,1-15.3,2.2-21.7,3.3h0l-7.2,1.2c-6.6,1.1-12,1.9-15.9,2.1l-5.2,0C2.4,62-0.2,59.7,0,51.5c0.6,1.4,1.6,2.4,3,2.3
	c0.4,0,1-0.1,1.7-0.3c1-0.2,2.2-0.6,3.8-1.1c6.3-1.9,17.1-5.3,31.7-8.7c21.1-5,53.4-4.5,69.5-2c16.2,2.5,44.9,10.5,50.9,10.5
	c6,0,0-13,0-13s0.5,0,1.2,0.2c4.8,6.5,7.3,11.6,7.3,11.6C171.5,57.3,166.2,59.8,159.6,60.6z"/>
<path class="st4" d="M43.4,4.7c-3.3,1.9-10,5.9-17.9,11.4c-11.2,7.8-16,22.6-17,33.8c-0.1,0.9-0.1,1.8,0,2.6c0.4,7.1,5,9.4,6.9,10
	l-5.2,0c-1.1-0.7-4.1-3.1-5.4-8.3c0-0.2-0.1-0.4-0.1-0.6c-1.2-6.1,1.6-11.2,8.5-26c0.1-0.1,0.1-0.2,0.2-0.4l0,0
	c5.5-6,11.7-11.5,16.2-15.1C33.6,8.9,37.9,6.5,43.4,4.7z"/>
<path class="st4" d="M38.5,59.1L38.5,59.1c-1.4-0.8-13.5-8.2-11.9-18.6c1.7-11,8.1-24.3,19-29.1C56,6.8,76.2,1,78.1,0.4
	C72.5,0.5,67.5,0.8,63,1.2c-8.2,3.2-24.4,10-28.7,14.5C28.3,21.7,21.5,29,22,41.9c0.4,11.1,5.9,16.7,9.4,18.4L38.5,59.1z"/>
<path class="st4" d="M148.9,60.6c-0.1-0.2-0.4-0.5-1.2-0.8c-4.6-2-4.1-4.4-5.4-7.2c-1.2-2.8-0.3-12,3.9-17c2.4-2.9,7.7-2.2,11.7-1.1
	l-7.3-7.6c-1.7-0.3-3.7-0.4-5.9-0.2c-10.6,0.9-12.3,9.3-13.8,18.8c-1,6,0.9,9.8,2.5,11.8h0L148.9,60.6z"/>
<path class="st7" d="M96.9,23.9c0,0-40.5,5.7-51.7,7.9s-12,1.9-7.9-3.6c3.4-4.6,1.6-12,46.9-9.4C84.2,18.8,114.8,19.9,96.9,23.9z"/>
<path class="st4" d="M109.6,3.9c-0.2,0.3-0.5,0.5-0.5,0.5s-9.6,0.8-13.7,0.9c-4,0.2-27.4,4.8-34.7,13.2c-7.3,8.4-2,25,2.2,30.8
	c1.8,2.5,3.9,4.3,5.8,5.5c-2.9,0.3-5.7,0.6-8.4,0.9h0c-3-2.4-8.4-7.6-10.1-15.3c-2.3-10.9-2-21.2,7-26c8.2-4.4,28.3-12.2,40.8-13.1
	c0,0,0,0,0,0l0,0L109.6,3.9z"/>
<path class="st4" d="M128.1,11.4l9.9,6.2c-4.2-2.2-11.8-5-21.3-3.2c-14.8,2.8-20.2,6.8-20.1,15.8c0.2,9,0.9,15.6,5.6,23.4
	c0,0.1,0.1,0.1,0.1,0.2c-2.7-0.1-5.5-0.1-8.5-0.1c-3-3.6-7-9.6-7.2-15.9c-0.3-10.3,1.2-20.5,10.6-24.1
	C106.3,10.1,121.3,9.4,128.1,11.4C128.1,11.4,128.1,11.4,128.1,11.4z"/>
<g>
	<circle class="st8" cx="66.7" cy="66.5" r="4.2"/>
	<circle class="st8" cx="95.3" cy="66.5" r="4.2"/>
</g>
<ellipse transform="matrix(0.9171 -0.3986 0.3986 0.9171 -18.2975 31.1687)" class="st1" cx="65.8" cy="59.6" rx="2.3" ry="1.9"/>
<ellipse transform="matrix(0.9171 -0.3986 0.3986 0.9171 -15.9308 42.5515)" class="st1" cx="94.4" cy="59.6" rx="2.3" ry="1.9"/>
<path class="st9" d="M99.4,80.2c0,0,4.1-8.3-2.5-7c-6.6,1.3-12.2,1.7-19.8,1.2c-7.6-0.6-11.3-1-11.3,2.8c0,3.8,4.9,5.3,14.2,6.2
	S97.4,84.7,99.4,80.2z"/>
<path class="st10" d="M99.9,79c0,0-0.4,2.7,0.2,3.9c0.7,1.2,0.3,2.9-1,3.3s-2.6-0.9-1.9-2.6s0-1.9,0-1.9"/>
<path class="st1" d="M66,63.3c0,0,0,2.4,2.5,2.5c0,0-2.4,0.2-2.4,2.4c0,0-0.2-2.3-2.3-2.3C63.8,65.8,66,65.7,66,63.3z"/>
<path class="st1" d="M94.7,63.3c0,0,0,2.4,2.5,2.5c0,0-2.4,0.2-2.4,2.4c0,0-0.2-2.3-2.3-2.3C92.4,65.8,94.7,65.7,94.7,63.3z"/>
</svg>
