<svg xmlns="http://www.w3.org/2000/svg" viewBox="0 0 169.65 92.4"><defs><style>.cls-1{fill:#fff;}.cls-2{fill:#fa8b22;}.cls-3{fill:#d8f0e1;}.cls-4{fill:#faed5c;}.cls-5{fill:none;}.cls-6{fill:#fc6c1f;opacity:0.77;}.cls-7{fill:#f8a520;opacity:0.68;}.cls-8{fill:#060507;}.cls-10,.cls-9{fill:#c94a89;}.cls-10{opacity:0.4;}</style></defs><title>Fichier 3</title><g id="Calque_2" data-name="Calque 2"><g id="Calque_1-2" data-name="Calque 1"><path class="cls-1" d="M134.45,62.32V75.91a16.26,16.26,0,0,1-16.27,16.26H43.79A16.26,16.26,0,0,1,27.53,75.91V62.32A16.24,16.24,0,0,1,43.79,46.06h74.39a16.26,16.26,0,0,1,15.38,11A16,16,0,0,1,134.45,62.32Z"/><path class="cls-2" d="M159.59,60.26a52.68,52.68,0,0,1-10.65,0c-.78-.07-1.52-.15-2.21-.25l-1.17-.17c-3.16-.51-6.94-1.63-12.22-2.79h0a162.7,162.7,0,0,0-31-3.66c-2.67-.08-5.5-.13-8.5-.12l-4,0c-7.39.11-14.49.57-21.2,1.22-2.89.28-5.71.6-8.45.94h0c-8,1-15.26,2.17-21.71,3.26h0L31.3,60A129.88,129.88,0,0,1,15.43,62l-5.21,0C2.42,61.65-.21,59.37,0,51.11c0-.63,0-1.3.09-2,.44-6.47,6.36-14.82,13.31-22.37h0A150,150,0,0,1,29.66,11.62,42.29,42.29,0,0,1,43.41,4.37,88.64,88.64,0,0,1,63,.82C67.46.43,72.47.19,78.12.07h0c1.47,0,3-.06,4.54-.07A96.3,96.3,0,0,1,97.91,1H98a91.68,91.68,0,0,1,11.6,2.51,93.69,93.69,0,0,1,18.51,7.5h0a112.52,112.52,0,0,1,12.31,7.63l.24.16.7.5.18.12h0l0,0c1.84,1.32,3.6,2.66,5.29,4q2,1.55,3.74,3.16a80.31,80.31,0,0,1,7.32,7.55c1.42,1.66,2.7,3.29,3.85,4.83a78.58,78.58,0,0,1,7.26,11.65C171.48,56.91,166.16,59.47,159.59,60.26Z"/><path class="cls-3" d="M134.45,62.55V76.14A16.26,16.26,0,0,1,118.18,92.4H43.79A16.26,16.26,0,0,1,27.53,76.14V62.55a16.41,16.41,0,0,1,.4-3.6l11.49-.45S31.2,67.12,29.05,72.28s4.51,11.38,8.8,12.45S48.59,86,52.67,86s8.59,1.5,12,.43S69.2,86,73.07,86s12.88,1.07,15.24.79,4.51,1.35,6.44-.12,9.24.62,12.46,0a42.86,42.86,0,0,1,11.59,0c3,.43,8.8-4.08,10.7-6s.9-5.58.25-6.87,0-3.87,1.5-6.23,2.31-10.3,2.31-10.3A16,16,0,0,1,134.45,62.55Z"/><path class="cls-4" d="M63,.82C67.46.43,72.47.19,78.12.07h0Z"/><path class="cls-4" d="M107.81,60.49l.46.15S108.14,60.67,107.81,60.49Z"/><path class="cls-4" d="M141.62,19.56,138,17.27c1,.53,1.83,1,2.45,1.43l.24.16.7.5Z"/><polyline class="cls-5" points="141.71 19.64 141.68 19.61 141.55 19.48 141.54 19.48"/><path class="cls-6" d="M159.59,60.26c-3.5.15-7.82,0-12.86-.22l-1.17-.17c-3.16-.51-6.94-1.63-12.22-2.79h0a162.7,162.7,0,0,0-31-3.66c-2.67-.08-5.5-.13-8.5-.12l-4,0c-7.39.11-14.49.57-21.2,1.22-2.89.28-5.71.6-8.45.94h0c-8,1-15.26,2.17-21.71,3.26h0L31.3,60A129.88,129.88,0,0,1,15.43,62l-5.21,0C2.42,61.65-.21,59.37,0,51.11c.62,1.37,1.63,2.38,3,2.31a10.48,10.48,0,0,0,1.74-.32c1-.24,2.25-.6,3.82-1.06,6.26-1.85,17.12-5.27,31.66-8.71,21.07-5,53.37-4.5,69.52-2s44.94,10.54,50.91,10.54,0-13,0-13a6,6,0,0,1,1.17.21,78.58,78.58,0,0,1,7.26,11.65C171.48,56.91,166.16,59.47,159.59,60.26Z"/><path class="cls-4" d="M43.41,4.37c-3.29,1.9-10,5.9-17.88,11.37-11.2,7.77-16,22.55-17,33.75A18.43,18.43,0,0,0,8.53,52c.36,7.09,5,9.36,6.9,10l-5.21,0a13.69,13.69,0,0,1-5.38-8.32c0-.2-.09-.39-.13-.59-1.24-6.11,1.6-11.24,8.53-26l.17-.35h0A150,150,0,0,1,29.66,11.62,42.29,42.29,0,0,1,43.41,4.37Z"/><path class="cls-4" d="M38.48,58.75h0C37.08,57.93,25,50.57,26.62,40.16c1.71-11,8.09-24.27,19-29.09C56,6.48,76.24.61,78.12.07,72.47.19,67.46.43,63,.82c-8.22,3.24-24.38,10-28.73,14.45C28.33,21.34,21.49,28.65,22,41.56,22.35,52.64,27.8,58.22,31.3,60Z"/><path class="cls-4" d="M148.94,60.29c-.05-.23-.41-.51-1.19-.85-4.59-2-4.12-4.35-5.37-7.15s-.31-12,3.89-17c2.45-2.9,7.71-2.2,11.67-1.12l-7.32-7.55a23.44,23.44,0,0,0-5.91-.19c-10.57.93-12.28,9.33-13.84,18.82-1,6,.92,9.78,2.46,11.79h0Z"/><path class="cls-7" d="M96.93,23.54S56.4,29.24,45.22,31.4s-12,1.89-7.94-3.58c3.43-4.62,1.62-12,46.9-9.4C84.18,18.42,114.78,19.56,96.93,23.54Z"/><path class="cls-4" d="M109.58,3.56a2,2,0,0,1-.53.51s-9.64.78-13.68.94S68,9.83,60.68,18.23s-2,25,2.18,30.79a23.72,23.72,0,0,0,5.79,5.53c-2.89.28-5.71.6-8.45.94h0c-3-2.38-8.44-7.6-10.1-15.33-2.32-10.89-2-21.16,7-26C65.34,9.78,85.36,2,97.91,1H98Z"/><path class="cls-4" d="M128.11,11.07l9.86,6.2A32.59,32.59,0,0,0,116.67,14c-14.77,2.8-20.22,6.79-20.06,15.76s.93,15.65,5.6,23.43l.12.2c-2.67-.08-5.5-.13-8.5-.12-3-3.64-7-9.6-7.17-15.93-.32-10.28,1.24-20.54,10.57-24.12,9.07-3.48,24-4.16,30.86-2.19Z"/><circle class="cls-8" cx="66.68" cy="66.19" r="4.16"/><circle class="cls-8" cx="95.3" cy="66.19" r="4.16"/><ellipse class="cls-1" cx="65.81" cy="59.24" rx="2.25" ry="1.93" transform="translate(-18.16 31.14) rotate(-23.49)"/><ellipse class="cls-1" cx="94.36" cy="59.24" rx="2.25" ry="1.93" transform="translate(-15.79 42.52) rotate(-23.49)"/><path class="cls-9" d="M99.41,79.8s4.12-8.26-2.52-7A68.62,68.62,0,0,1,77.12,74c-7.6-.58-11.33-1-11.33,2.79S70.67,82.08,80,83,97.41,84.4,99.41,79.8Z"/><path class="cls-10" d="M99.92,78.61s-.43,2.74.25,3.91.31,2.94-1,3.3a1.74,1.74,0,0,1-1.86-2.59c.72-1.64,0-1.88,0-1.88"/><path class="cls-1" d="M66,63a2.47,2.47,0,0,0,2.48,2.49s-2.35.23-2.35,2.35c0,0-.17-2.34-2.35-2.34A2.35,2.35,0,0,0,66,63Z"/><path class="cls-1" d="M94.65,63a2.48,2.48,0,0,0,2.49,2.49s-2.36.23-2.36,2.35c0,0-.17-2.34-2.35-2.34A2.35,2.35,0,0,0,94.65,63Z"/></g></g></svg>