<?xml version="1.0" encoding="utf-8"?>
<!-- Generator: Adobe Illustrator 23.0.1, SVG Export Plug-In . SVG Version: 6.00 Build 0)  -->
<svg version="1.1" id="Calque_1" xmlns="http://www.w3.org/2000/svg" xmlns:xlink="http://www.w3.org/1999/xlink" x="0px" y="0px"
	 viewBox="0 0 2007.1 1193.4" style="enable-background:new 0 0 2007.1 1193.4;" xml:space="preserve">
<style type="text/css">
	.st0{opacity:0.2;}
	.st1{fill:#FFFFFF;}
	.st2{fill:#D9EBE7;}
	.st3{fill:#E69F55;}
	.st4{fill:#F7E489;}
	.st5{fill:none;}
	.st6{opacity:0.77;fill:#E48A4F;}
	.st7{opacity:0.68;fill:#E9B056;}
	.st8{fill:#000005;}
	.st9{fill:#BC7194;}
	.st10{opacity:0.4;fill:#BC7194;}
</style>
<ellipse class="st0" cx="1002" cy="1039.3" rx="949.6" ry="154.1"/>
<path class="st1" d="M1951.6,737.2V898c0,106.2-129.3,192.4-289,192.4H341.2c-159.5,0-288.8-86.1-288.8-192.4V737.2
	c0-14.7,2.5-28.9,7.1-42.6c29.1-85.8,144.2-149.8,281.7-149.8h1321.4c126.7,0,234.3,54.2,273.2,129.7
	C1946.1,694.2,1951.6,715.2,1951.6,737.2z"/>
<path class="st2" d="M1951.6,740v160.8c0,106.2-129.3,192.4-289,192.4H341.2c-159.5,0-288.8-86.1-288.8-192.4V740
	c0-14.7,2.5-28.9,7.1-42.6l204.1-5.3c0,0-146,102-184.2,163c-38.2,61,80.1,134.6,156.3,147.3c76.4,12.7,190.8,15.3,263.2,15.3
	s152.6,17.7,213.5,5.1c61.1-12.8,80.1-5.1,148.9-5.1c68.6,0,228.8,12.7,270.7,9.3c41.9-3.4,80.1,16,114.4-1.4
	c34.5-17.4,164.1,7.3,221.3,0c57.2-7.3,152.4-5.4,205.9-0.4c53.5,5.1,156.3-48.3,190.1-71.1s16-66,4.4-81.3
	c-11.4-15.3,0-45.8,26.6-73.7c26.8-27.9,41-121.8,41-121.8C1946.1,696.9,1951.6,718,1951.6,740z"/>
<path class="st3" d="M1887.9,712.9c-41.8,5-87.7,3.9-126,0.4c-9.2-0.8-18-1.8-26.1-3c-4.8-0.6-9.5-1.3-13.8-2
	c-37.4-6-82.1-19.3-144.6-33h-0.1c-82.9-18.3-197.1-37.9-366.7-43.3c-31.6-0.9-65.1-1.5-100.6-1.4c-15.4,0-31,0.1-47.1,0.4
	c-87.4,1.3-171.4,6.7-250.8,14.4c-34.2,3.3-67.5,7.1-100,11.1h-0.1C617.9,668,531.5,682.1,455.2,695h-0.1l-84.8,14.4
	c-77.8,13.1-141.6,23.1-187.7,24.4l-61.6-0.2C28.7,729.3-2.5,702.4,0.1,604.6c0.1-7.5,0.5-15.4,1.1-23.7
	c5.2-76.5,75.2-175.3,157.5-264.6l0.1-0.1c65.3-71,138.2-135.9,192.1-178.7c46.1-36.7,97.7-64.8,162.7-85.8
	c62.3-20.2,137-33.7,231.4-42c53.1-4.6,112.4-7.5,179.2-8.9h0.1C941.7,0.5,959.5,0.1,978,0c63.6-0.6,123.6,3.8,180.3,12.3
	c0,0,0.1,0,0.2,0l0.6,0.1c48,7.2,93.8,17.3,137.2,29.7c80.3,22.8,153.1,53.6,219,88.7c0.1,0,0.2,0.1,0.2,0.1
	c52.6,27.9,101,58.7,145.6,90.3c0.9,0.6,1.9,1.3,2.8,1.9c3.4,2.5,6.3,4.5,8.3,5.9c0.7,0.5,1.4,0.9,2.1,1.4h0.1l0.5,0.4
	c21.8,15.6,42.6,31.5,62.6,47.2c15.4,12.2,30.2,24.6,44.2,37.4c32.5,29.3,61.4,59.7,86.6,89.3c16.8,19.6,31.9,38.9,45.5,57.1
	c57.3,77.5,85.9,137.8,85.9,137.8C2028.6,673.3,1965.6,703.5,1887.9,712.9z"/>
<path class="st4" d="M744.9,9.7c53.1-4.6,112.4-7.5,179.2-8.9h0.1L744.9,9.7z"/>
<path class="st4" d="M1275.4,715.6l5.4,1.8C1280.8,717.4,1279.3,717.7,1275.4,715.6z"/>
<polyline class="st5" points="1676.4,232.2 1676.1,231.9 1674.5,230.5 1674.4,230.5 "/>
<path class="st6" d="M1887.9,712.9c-41.4,1.8-92.5-0.4-152.1-2.6c-4.8-0.6-9.5-1.3-13.8-2c-37.4-6-82.1-19.3-144.6-33h-0.1
	c-82.9-18.3-197.1-37.9-366.7-43.3c-31.6-0.9-65.1-1.5-100.6-1.4c-15.4,0-31,0.1-47.1,0.4c-87.4,1.3-171.4,6.7-250.8,14.4
	c-34.2,3.3-67.5,7.1-100,11.1h-0.1C617.9,668,531.5,682.1,455.2,695h-0.1l-84.8,14.4c-77.8,13.1-141.6,23.1-187.7,24.4l-61.6-0.2
	C28.7,729.3-2.5,702.4,0.1,604.6c7.3,16.2,19.3,28.2,35,27.3c4.5-0.2,11.5-1.5,20.6-3.8c11.5-2.8,26.6-7.1,45.2-12.5
	c74.1-21.9,202.5-62.3,374.5-103c249.3-58.9,631.3-53.2,822.4-24.3c191,29.1,531.6,124.7,602.2,124.7c70.6,0,0-153.7,0-153.7
	s5.4,0.2,13.8,2.5c57.3,77.5,85.9,137.8,85.9,137.8C2028.6,673.3,1965.6,703.5,1887.9,712.9z"/>
<path class="st4" d="M513.6,51.7C474.6,74.2,395.1,121.5,302,186.2C169.5,278.1,112.5,453,101.5,585.5c-0.9,10.8-1.1,20.8-0.6,30.2
	c4.3,83.9,59.5,110.7,81.6,118.2l-61.6-0.2c-12.5-8.3-48.5-36.8-63.6-98.4c-0.6-2.4-1.1-4.6-1.5-7c-14.7-72.3,18.9-133,100.9-307.7
	c0.7-1.4,1.3-2.7,2-4.1l0.1-0.1c65.3-71,138.2-135.9,192.1-178.7C397,100.8,448.6,72.7,513.6,51.7z"/>
<path class="st4" d="M455.2,695h-0.1c-16.4-9.7-159.2-96.8-140.2-219.9C335.2,344.4,410.6,188,539.3,131
	C662.1,76.7,901.9,7.2,924.2,0.9c-66.8,1.4-126.1,4.3-179.2,8.9c-97.2,38.3-288.4,118.1-339.9,170.9
	c-69.9,71.8-150.8,158.3-145.4,311c4.7,131.1,69.2,197.1,110.6,217.8L455.2,695z"/>
<path class="st4" d="M1761.9,713.2c-0.6-2.7-4.9-6-14.1-10.1c-54.3-23.9-48.7-51.5-63.5-84.6c-14.7-33.1-3.7-141.7,46-200.6
	c29-34.3,91.2-26,138.1-13.2c0,0-47.1-56.4-86.6-89.3c-15.6-13.1-43.4-4.6-69.9-2.2c-125,11-145.3,110.4-163.7,222.6
	c-11.6,70.6,10.9,115.7,29.1,139.5c0,0,0.1,0,0.1,0C1735.1,716.9,1761.9,713.2,1761.9,713.2z"/>
<path class="st7" d="M1146.6,278.4c0,0-479.4,67.5-611.7,93C402.6,397,392.9,393.8,441,329c40.6-54.6,19.1-141.9,554.8-111.1
	C995.8,217.9,1357.8,231.4,1146.6,278.4z"/>
<path class="st4" d="M1296.3,42.1c4.3,1.2-6.3,6-6.3,6s-114,9.2-161.8,11.1c-47.9,1.8-323.9,57-410.4,156.4
	c-86.5,99.3-23.9,296.2,25.8,364.2c21.3,29.1,46.6,50.5,68.5,65.4c-34.2,3.3-67.5,7.1-100,11.1h-0.1
	c-35.6-28.2-99.8-89.9-119.5-181.3c-27.4-128.8-23.9-250.3,82.9-307.3c97.5-52.1,334.3-144,482.8-155.4c0,0,0.1,0,0.2,0l0.6,0.1
	C1159.1,12.4,1226,21.9,1296.3,42.1z"/>
<path class="st4" d="M1518.3,132.5c27.2,9.8,112.7,67.9,112.7,67.9c-60.2-23-139-55.6-250.8-34.4
	c-174.7,33.1-239.2,80.3-237.3,186.4c1.9,106.1,11,185.1,66.2,277.2c0.5,0.8,0.9,1.7,1.4,2.4c-31.6-0.9-65.1-1.5-100.6-1.4
	c-35.7-43.1-82.6-113.6-84.8-188.4c-3.8-121.6,14.7-243,125-285.3c107.3-41.2,283.8-48.4,364.5-25.1
	C1514.8,131.6,1516.2,131.7,1518.3,132.5z"/>
<g>
	<circle class="st8" cx="788.8" cy="783" r="49.2"/>
	<circle class="st8" cx="1127.3" cy="783" r="49.2"/>
</g>
<ellipse transform="matrix(0.9171 -0.3986 0.3986 0.9171 -214.8105 368.3789)" class="st1" cx="778.5" cy="700.8" rx="26.6" ry="22.8"/>
<ellipse transform="matrix(0.9171 -0.3986 0.3986 0.9171 -186.8136 503.0337)" class="st1" cx="1116.3" cy="700.8" rx="26.6" ry="22.8"/>
<path class="st9" d="M1176,944c0,0,48.7-97.7-29.8-82.6c-78.5,15.2-143.9,20.7-233.9,13.8s-134-12.4-134,33.1
	c0,45.5,57.7,62.6,167.9,73.7C1056.5,993,1152.4,998.4,1176,944z"/>
<path class="st10" d="M1182,929.9c0,0-5.1,32.4,2.9,46.2c8,13.8,3.7,34.8-11.5,39s-30.4-11.2-22-30.5c8.5-19.4,0.6-22.3,0.6-22.3"/>
<path class="st1" d="M780.7,744.8c0,0,0,28.4,29.4,29.4c0,0-27.9,2.8-27.9,27.9c0,0-2-27.8-27.8-27.8
	C754.5,774.3,780.7,773.2,780.7,744.8z"/>
<path class="st1" d="M1119.7,744.8c0,0,0,28.4,29.4,29.4c0,0-27.9,2.8-27.9,27.9c0,0-2-27.8-27.8-27.8
	C1093.5,774.3,1119.7,773.2,1119.7,744.8z"/>
</svg>
